<?xml version="1.0" encoding="utf-8"?>
<!-- Generator: Adobe Illustrator 22.0.1, SVG Export Plug-In . SVG Version: 6.00 Build 0)  -->
<svg version="1.1" id="Layer_1" xmlns="http://www.w3.org/2000/svg" xmlns:xlink="http://www.w3.org/1999/xlink" x="0px" y="0px"
	 viewBox="0 0 40 40" style="enable-background:new 0 0 40 40;" xml:space="preserve">
<style type="text/css">
	.st0{clip-path:url(#SVGID_2_);}
	.st1{fill:url(#SVGID_3_);}
	.st2{clip-path:url(#SVGID_5_);}
	.st3{clip-path:url(#SVGID_7_);}
	.st4{clip-path:url(#SVGID_11_);}
	.st5{fill:#666666;}
	.st6{fill:#FFFFFF;}
	.st7{fill:#404749;}
	.st8{fill:url(#SVGID_12_);}
	.st9{fill:#333333;}
	.st10{fill:#076FEF;}
	.st11{fill:none;stroke:#404749;stroke-miterlimit:10;}
	.st12{fill:url(#SVGID_17_);}
	.st13{fill:none;}
	.st14{fill:none;stroke:#076FEF;stroke-width:2;stroke-miterlimit:10;}
	.st15{fill:url(#SVGID_18_);}
	.st16{fill:#4F585A;}
	.st17{fill:url(#SVGID_19_);}
	.st18{fill:url(#SVGID_20_);}
	.st19{fill:none;stroke:#CCCCCC;stroke-width:0.5;stroke-miterlimit:10;}
	.st20{fill:url(#SVGID_21_);}
	.st21{fill:#666666;stroke:#FFFFFF;stroke-miterlimit:10;}
	.st22{clip-path:url(#SVGID_23_);}
	.st23{fill:url(#SVGID_24_);}
	.st24{fill:none;stroke:#FFFFFF;stroke-miterlimit:10;}
	.st25{opacity:0.5;}
	.st26{fill:none;stroke:#FFFFFF;stroke-width:0.5;stroke-miterlimit:10;}
	.st27{clip-path:url(#SVGID_26_);}
	.st28{fill:url(#SVGID_27_);}
	.st29{clip-path:url(#SVGID_29_);}
	.st30{clip-path:url(#SVGID_31_);}
	.st31{clip-path:url(#SVGID_33_);}
	.st32{clip-path:url(#SVGID_35_);}
	.st33{fill:#CCCCCC;}
	.st34{fill:url(#SVGID_36_);}
	.st35{clip-path:url(#SVGID_38_);}
	.st36{clip-path:url(#SVGID_40_);}
	.st37{fill:url(#SVGID_41_);}
	.st38{clip-path:url(#SVGID_45_);}
	.st39{clip-path:url(#SVGID_47_);}
	.st40{fill:url(#SVGID_48_);}
	.st41{fill:url(#SVGID_49_);}
	.st42{fill:url(#SVGID_50_);}
	.st43{fill:url(#SVGID_53_);}
	.st44{fill:url(#SVGID_54_);}
	.st45{fill:url(#SVGID_55_);}
	.st46{fill:#F4F4F4;}
	.st47{clip-path:url(#SVGID_57_);}
	.st48{clip-path:url(#SVGID_59_);}
	.st49{clip-path:url(#SVGID_61_);}
	.st50{clip-path:url(#SVGID_63_);}
	.st51{clip-path:url(#SVGID_65_);}
	.st52{clip-path:url(#SVGID_67_);}
	.st53{fill:url(#SVGID_68_);}
	.st54{clip-path:url(#SVGID_70_);}
	.st55{fill:url(#SVGID_71_);}
	.st56{clip-path:url(#SVGID_73_);}
	.st57{clip-path:url(#SVGID_75_);}
	.st58{clip-path:url(#SVGID_77_);}
	.st59{clip-path:url(#SVGID_79_);}
	.st60{clip-path:url(#SVGID_81_);}
	.st61{clip-path:url(#SVGID_83_);}
	.st62{fill:url(#SVGID_84_);}
	.st63{clip-path:url(#SVGID_86_);}
	.st64{clip-path:url(#SVGID_88_);}
	.st65{fill:url(#SVGID_89_);}
	.st66{fill:url(#SVGID_90_);}
	.st67{fill:#FFF9FD;}
	.st68{fill:#292C3D;}
	.st69{fill:#F9A57E;}
	.st70{fill:#FF4C6B;}
	.st71{fill:#AFEAF0;}
	.st72{fill:#4D505E;}
	.st73{fill:#3D3848;}
	.st74{fill:#E76F59;}
	.st75{fill:#DA395B;}
	.st76{fill:#7695A8;}
	.st77{fill:#5AC4E0;}
	.st78{fill:#0254E4;}
	.st79{opacity:0.65;fill:#00A1CC;}
	.st80{fill:#FFB089;}
	.st81{opacity:0.55;fill:#ABACB3;}
	.st82{fill:#3F6A85;}
	.st83{fill:#5B5D6A;}
	.st84{fill:#273137;}
	.st85{fill:#F8F2ED;}
	.st86{fill:#48525B;}
	.st87{fill:#B6B6B6;}
	.st88{fill:#8494AB;}
	.st89{fill:#B3B2DA;}
	.st90{fill:url(#SVGID_91_);}
	.st91{fill:url(#SVGID_92_);}
</style>
<path class="st9" d="M1.3,16.8v5.2c0,1.4,1.2,2.6,2.6,2.6h0.6v10.3c0,1.4,1.2,2.6,2.6,2.6c0.8,0,1.5-0.3,1.9-0.9
	c0.5,0.5,1.2,0.9,1.9,0.9c1.4,0,2.6-1.2,2.6-2.6v-8.1c0.4,0.2,0.8,0.4,1.3,0.4h0.6v10.3c0,1.4,1.2,2.6,2.6,2.6
	c0.8,0,1.5-0.3,1.9-0.9c0.5,0.5,1.2,0.9,1.9,0.9c1.4,0,2.6-1.2,2.6-2.6V27.1h0.6c0.5,0,0.9-0.1,1.3-0.4v8.1c0,1.4,1.2,2.6,2.6,2.6
	c0.8,0,1.5-0.3,1.9-0.9c0.5,0.5,1.2,0.9,1.9,0.9c1.4,0,2.6-1.2,2.6-2.6V24.5h0.6c1.4,0,2.6-1.2,2.6-2.6v-5.2c0-3.3-2.1-6.1-5-7.2
	c1.5-0.9,2.4-2.5,2.4-4.4C36.1,2.3,33.8,0,31,0c-2.8,0-5.2,2.3-5.2,5.2c0,1.8,1,3.5,2.4,4.4c-1.7,0.6-3.1,1.8-4,3.4
	c-0.5-0.3-1-0.6-1.5-0.8c1.5-0.9,2.4-2.5,2.4-4.4c0-2.8-2.3-5.2-5.2-5.2s-5.2,2.3-5.2,5.2c0,1.8,1,3.5,2.4,4.4
	c-0.5,0.2-1.1,0.5-1.5,0.8c-0.9-1.6-2.3-2.7-4-3.4c1.5-0.9,2.4-2.5,2.4-4.4C14.2,2.3,11.9,0,9,0S3.9,2.3,3.9,5.2
	c0,1.8,1,3.5,2.4,4.4C3.4,10.6,1.3,13.5,1.3,16.8z M25.2,25.8h-0.6v-9h-1.3v20.6c0,0.7-0.6,1.3-1.3,1.3s-1.3-0.6-1.3-1.3V23.9h-1.3
	v13.5c0,0.7-0.6,1.3-1.3,1.3s-1.3-0.6-1.3-1.3V16.8h-1.3v9h-0.6c-0.7,0-1.3-0.6-1.3-1.3v-3.2v-2c0-3,2.1-5.5,4.9-6.2l-0.4,5.1
	l1.9,2.9l1.9-2.9l-0.4-5.1c2.8,0.7,4.9,3.2,4.9,6.2v1.9v3.2C26.5,25.2,25.9,25.8,25.2,25.8z M20,12.9c0.1,0,0.2,0,0.3,0l0.4,5
	L20,18.8l-0.6-0.9l0.4-5C19.8,12.9,19.9,12.9,20,12.9z M29.6,10.5c0.5-0.1,0.9-0.2,1.4-0.2c0.5,0,0.9,0.1,1.4,0.2l-1.4,2L29.6,10.5z
	 M30.1,13.5l-0.8,0.8L28,11c0.1,0,0.2-0.1,0.2-0.1L30.1,13.5z M31.8,13.5l1.8-2.6c0.1,0,0.2,0.1,0.3,0.1l-1.2,3.3L31.8,13.5z
	 M27.1,5.2c0-2.1,1.7-3.9,3.9-3.9c2.1,0,3.9,1.7,3.9,3.9S33.1,9,31,9C28.8,9,27.1,7.3,27.1,5.2z M26.9,11.8l1.9,4.9l2.2-2.2l2.2,2.2
	l1.9-4.9c1.5,1.2,2.4,3,2.4,5v5.2c0,0.7-0.6,1.3-1.3,1.3h-0.6v-8.4h-1.3v20c0,0.7-0.6,1.3-1.3,1.3s-1.3-0.6-1.3-1.3V21.3h-1.3v13.5
	c0,0.7-0.6,1.3-1.3,1.3c-0.7,0-1.3-0.6-1.3-1.3V24.5v-3.2v-1.9c0-2.2-0.9-4.2-2.4-5.6C25.7,13,26.3,12.3,26.9,11.8L26.9,11.8z
	 M16.1,7.7c0-2.1,1.7-3.9,3.9-3.9s3.9,1.7,3.9,3.9s-1.7,3.9-3.9,3.9S16.1,9.9,16.1,7.7z M9,10.3c0.4,0,0.8,0,1.2,0.1
	C10,11.1,9.5,11.6,9,11.6c-0.5,0-1-0.5-1.2-1.2C8.2,10.4,8.6,10.3,9,10.3z M5.2,5.2C5.2,3,6.9,1.3,9,1.3s3.9,1.7,3.9,3.9S11.2,9,9,9
	S5.2,7.3,5.2,5.2z M6.6,10.8C7,12,7.9,12.9,9,12.9c1.1,0,2-0.9,2.4-2.1c1.4,0.6,2.5,1.6,3.3,2.9c-1.5,1.4-2.4,3.4-2.4,5.6v2v3.2
	v10.3c0,0.7-0.6,1.3-1.3,1.3c-0.7,0-1.3-0.6-1.3-1.3V21.3H8.4v13.5c0,0.7-0.6,1.3-1.3,1.3s-1.3-0.6-1.3-1.3V14.2H4.5v9H3.9
	c-0.7,0-1.3-0.6-1.3-1.3v-5.2C2.6,14.1,4.3,11.8,6.6,10.8L6.6,10.8z"/>
</svg>
