<?xml version="1.0" encoding="utf-8"?>
<!-- Generator: Adobe Illustrator 22.0.1, SVG Export Plug-In . SVG Version: 6.00 Build 0)  -->
<svg version="1.1" id="Layer_1" xmlns="http://www.w3.org/2000/svg" xmlns:xlink="http://www.w3.org/1999/xlink" x="0px" y="0px"
	 viewBox="0 0 40 40" style="enable-background:new 0 0 40 40;" xml:space="preserve">
<style type="text/css">
	.st0{clip-path:url(#SVGID_2_);}
	.st1{fill:url(#SVGID_3_);}
	.st2{clip-path:url(#SVGID_5_);}
	.st3{clip-path:url(#SVGID_7_);}
	.st4{clip-path:url(#SVGID_11_);}
	.st5{fill:#666666;}
	.st6{fill:#FFFFFF;}
	.st7{fill:#404749;}
	.st8{fill:url(#SVGID_12_);}
	.st9{fill:#333333;}
	.st10{fill:#076FEF;}
	.st11{fill:none;stroke:#404749;stroke-miterlimit:10;}
	.st12{fill:url(#SVGID_17_);}
	.st13{fill:none;}
	.st14{fill:none;stroke:#076FEF;stroke-width:2;stroke-miterlimit:10;}
	.st15{fill:url(#SVGID_18_);}
	.st16{fill:#4F585A;}
	.st17{fill:url(#SVGID_19_);}
	.st18{fill:url(#SVGID_20_);}
	.st19{fill:none;stroke:#CCCCCC;stroke-width:0.5;stroke-miterlimit:10;}
	.st20{fill:url(#SVGID_21_);}
	.st21{fill:#666666;stroke:#FFFFFF;stroke-miterlimit:10;}
	.st22{clip-path:url(#SVGID_23_);}
	.st23{fill:url(#SVGID_24_);}
	.st24{fill:none;stroke:#FFFFFF;stroke-miterlimit:10;}
	.st25{opacity:0.5;}
	.st26{fill:none;stroke:#FFFFFF;stroke-width:0.5;stroke-miterlimit:10;}
	.st27{clip-path:url(#SVGID_26_);}
	.st28{fill:url(#SVGID_27_);}
	.st29{clip-path:url(#SVGID_29_);}
	.st30{clip-path:url(#SVGID_31_);}
	.st31{clip-path:url(#SVGID_33_);}
	.st32{clip-path:url(#SVGID_35_);}
	.st33{fill:#CCCCCC;}
	.st34{fill:url(#SVGID_36_);}
	.st35{clip-path:url(#SVGID_38_);}
	.st36{clip-path:url(#SVGID_40_);}
	.st37{fill:url(#SVGID_41_);}
	.st38{clip-path:url(#SVGID_45_);}
	.st39{clip-path:url(#SVGID_47_);}
	.st40{fill:url(#SVGID_48_);}
	.st41{fill:url(#SVGID_49_);}
	.st42{fill:url(#SVGID_50_);}
	.st43{fill:url(#SVGID_53_);}
	.st44{fill:url(#SVGID_54_);}
	.st45{fill:url(#SVGID_55_);}
	.st46{fill:#F4F4F4;}
	.st47{clip-path:url(#SVGID_57_);}
	.st48{clip-path:url(#SVGID_59_);}
	.st49{clip-path:url(#SVGID_61_);}
	.st50{clip-path:url(#SVGID_63_);}
	.st51{clip-path:url(#SVGID_65_);}
	.st52{clip-path:url(#SVGID_67_);}
	.st53{fill:url(#SVGID_68_);}
	.st54{clip-path:url(#SVGID_70_);}
	.st55{fill:url(#SVGID_71_);}
	.st56{clip-path:url(#SVGID_73_);}
	.st57{clip-path:url(#SVGID_75_);}
	.st58{clip-path:url(#SVGID_77_);}
	.st59{clip-path:url(#SVGID_79_);}
	.st60{clip-path:url(#SVGID_81_);}
	.st61{clip-path:url(#SVGID_83_);}
	.st62{fill:url(#SVGID_84_);}
	.st63{clip-path:url(#SVGID_86_);}
	.st64{clip-path:url(#SVGID_88_);}
	.st65{fill:url(#SVGID_89_);}
	.st66{fill:url(#SVGID_90_);}
	.st67{fill:#FFF9FD;}
	.st68{fill:#292C3D;}
	.st69{fill:#F9A57E;}
	.st70{fill:#FF4C6B;}
	.st71{fill:#AFEAF0;}
	.st72{fill:#4D505E;}
	.st73{fill:#3D3848;}
	.st74{fill:#E76F59;}
	.st75{fill:#DA395B;}
	.st76{fill:#7695A8;}
	.st77{fill:#5AC4E0;}
	.st78{fill:#0254E4;}
	.st79{opacity:0.65;fill:#00A1CC;}
	.st80{fill:#FFB089;}
	.st81{opacity:0.55;fill:#ABACB3;}
	.st82{fill:#3F6A85;}
	.st83{fill:#5B5D6A;}
	.st84{fill:#273137;}
	.st85{fill:#F8F2ED;}
	.st86{fill:#48525B;}
	.st87{fill:#B6B6B6;}
	.st88{fill:#8494AB;}
	.st89{fill:#B3B2DA;}
	.st90{fill:url(#SVGID_91_);}
	.st91{fill:url(#SVGID_92_);}
</style>
<g>
	<g>
		<path class="st9" d="M24.5,16.8c3.9,0,7.1-3.2,7.1-7.1s-3.2-7.1-7.1-7.1s-7.1,3.2-7.1,7.1S20.6,16.8,24.5,16.8z M24.5,3.9
			c3.2,0,5.8,2.6,5.8,5.8s-2.6,5.8-5.8,5.8s-5.8-2.6-5.8-5.8S21.3,3.9,24.5,3.9z"/>
		<path class="st9" d="M21.3,6.1v7.2l7.2-3.6L21.3,6.1z M22.6,8.1l3.1,1.5l-3.1,1.5V8.1z"/>
		<path class="st9" d="M36.8,0H12.3C10.5,0,9,1.4,9,3.2v12.6l-7,3.8c-0.6,0.3-0.9,1.1-0.6,1.7L1.7,22c-0.3,0.3-0.5,0.8-0.5,1.2v3.4
			C0.5,27.1,0,28.2,0,29C0,30.1,0.9,31,1.9,31s1.9-0.9,1.9-1.9c0-0.8-0.5-2-1.3-2.4v-3.4c0,0,0-0.1,0-0.1c0.1,0,0.1,0.1,0.2,0.1
			c0.1,0,0.3,0.1,0.4,0.1c0.2,0,0.4,0,0.6-0.1l0.4-0.2l1.2,2.4l0.5-0.1c0,0,0.1,0,0.2,0c0.3,1,0.9,1.9,1.8,2.5
			c-2.6,1-4.5,3.6-4.5,6.6V40h12.3v-3.4l0.1,0.1c1,1.3,2.5,2.1,4.1,2.1c1.6,0,3.2-0.8,4.1-2.1l2.2-2.9c0.3-0.4,0.5-0.9,0.5-1.4v-0.2
			c0-0.9-0.5-1.7-1.3-2.1v-2.9h11.6c1.8,0,3.2-1.4,3.2-3.2V3.2C40,1.4,38.6,0,36.8,0z M10.3,3.2c0-1.1,0.9-1.9,1.9-1.9h24.5
			c1.1,0,1.9,0.9,1.9,1.9v14.8H13.1l0-0.1l0.4-0.2c0.6-0.3,0.9-1.1,0.6-1.7l-0.6-1.1c-0.2-0.3-0.4-0.5-0.7-0.6
			c-0.3-0.1-0.7-0.1-1,0.1l-1.4,0.8V3.2z M1.9,29.7c-0.4,0-0.6-0.3-0.6-0.6c0-0.5,0.4-1.3,0.6-1.3c0.2,0,0.6,0.8,0.6,1.3
			C2.6,29.4,2.3,29.7,1.9,29.7z M3.2,21.9l-0.6-1.1l9.7-5.3l0.6,1.1L3.2,21.9z M5.3,22.3l6.7-3.6l0.8,1.6c-0.6,0.5-2,1.6-3.2,2.2
			c-1.2,0.6-2.8,1.1-3.6,1.3L5.3,22.3z M7.2,24.8c0.9-0.3,2-0.7,3-1.2c0.9-0.5,1.9-1.2,2.6-1.8c0.5,0.6,0.7,1.3,0.7,2
			c0,1.8-1.4,3.2-3.2,3.2C8.9,27.1,7.6,26.1,7.2,24.8z M25.2,32.3c0,0.2-0.1,0.5-0.2,0.7l-2.2,2.9c-0.7,1-1.9,1.5-3.1,1.5
			c-1.2,0-2.4-0.6-3.1-1.5l-2.5-3.4l-1,0.8l1.2,1.5v3.9H4.5v-4.5c0-3.2,2.6-5.8,5.8-5.8h0.8c2.1,0,4.2,1,5.4,2.8l2.6,3.7h1.3
			l2.9-3.5c0.2-0.3,0.5-0.4,0.9-0.4c0.6,0,1.1,0.5,1.1,1.1L25.2,32.3z M23.9,29.7c-0.6,0-1.2,0.3-1.7,0.8l-2.5,3l-2.2-3.1
			c0,0-0.1-0.1-0.1-0.1v-8.4h6.5V29.7z M36.8,25.8H25.2v-2.6h12.3v-1.3H25.2v-1.3h-9v8.3c-0.9-0.7-1.9-1.3-3-1.6
			c1-0.8,1.7-2.1,1.7-3.5c0-1.1-0.4-2.1-1-2.9c0.1-0.1,0.2-0.1,0.2-0.2l0.4-0.3l-0.6-1.2h24.9v4.5C38.7,24.9,37.8,25.8,36.8,25.8z"
			/>
		<path class="st9" d="M18.7,25.8h3.9v1.3h-3.9V25.8z"/>
		<path class="st9" d="M18.7,28.4h2.6v1.3h-2.6V28.4z"/>
		<path class="st9" d="M18.7,23.2h3.9v1.3h-3.9V23.2z"/>
		<path class="st9" d="M11.6,7.7h1.3V9h-1.3V7.7z"/>
		<path class="st9" d="M36.1,15.5h1.3v1.3h-1.3V15.5z"/>
		<path class="st9" d="M36.1,12.9h1.3v1.3h-1.3V12.9z"/>
		<path class="st9" d="M36.1,10.3h1.3v1.3h-1.3V10.3z"/>
		<path class="st9" d="M12.9,3.9h5.2V2.6h-5.2c-0.7,0-1.3,0.6-1.3,1.3v2.6h1.3V3.9z"/>
	</g>
</g>
</svg>
