<?xml version="1.0" encoding="utf-8"?>
<!-- Generator: Adobe Illustrator 22.0.1, SVG Export Plug-In . SVG Version: 6.00 Build 0)  -->
<svg version="1.1" id="Layer_1" xmlns="http://www.w3.org/2000/svg" xmlns:xlink="http://www.w3.org/1999/xlink" x="0px" y="0px"
	 viewBox="0 0 20 20" style="enable-background:new 0 0 20 20;" xml:space="preserve">
<style type="text/css">
	.st0{clip-path:url(#SVGID_2_);}
	.st1{fill:url(#SVGID_3_);}
	.st2{clip-path:url(#SVGID_5_);}
	.st3{clip-path:url(#SVGID_7_);}
	.st4{clip-path:url(#SVGID_11_);}
	.st5{fill:#666666;}
	.st6{fill:#FFFFFF;}
	.st7{fill:#404749;}
	.st8{fill:url(#SVGID_12_);}
	.st9{fill:#333333;}
	.st10{fill:#076FEF;}
	.st11{fill:none;stroke:#404749;stroke-miterlimit:10;}
	.st12{fill:url(#SVGID_17_);}
	.st13{fill:none;}
	.st14{fill:none;stroke:#076FEF;stroke-width:2;stroke-miterlimit:10;}
	.st15{fill:url(#SVGID_18_);}
	.st16{fill:#4F585A;}
	.st17{fill:url(#SVGID_19_);}
	.st18{fill:url(#SVGID_20_);}
	.st19{fill:none;stroke:#CCCCCC;stroke-width:0.5;stroke-miterlimit:10;}
	.st20{fill:url(#SVGID_21_);}
	.st21{fill:#666666;stroke:#FFFFFF;stroke-miterlimit:10;}
	.st22{clip-path:url(#SVGID_23_);}
	.st23{fill:url(#SVGID_24_);}
	.st24{fill:none;stroke:#FFFFFF;stroke-miterlimit:10;}
	.st25{opacity:0.5;}
	.st26{fill:none;stroke:#FFFFFF;stroke-width:0.5;stroke-miterlimit:10;}
	.st27{clip-path:url(#SVGID_26_);}
	.st28{fill:url(#SVGID_27_);}
	.st29{clip-path:url(#SVGID_29_);}
	.st30{clip-path:url(#SVGID_31_);}
	.st31{clip-path:url(#SVGID_33_);}
	.st32{clip-path:url(#SVGID_35_);}
	.st33{fill:#CCCCCC;}
	.st34{fill:url(#SVGID_36_);}
	.st35{clip-path:url(#SVGID_38_);}
	.st36{clip-path:url(#SVGID_40_);}
	.st37{fill:url(#SVGID_41_);}
	.st38{clip-path:url(#SVGID_45_);}
	.st39{clip-path:url(#SVGID_47_);}
	.st40{fill:url(#SVGID_48_);}
	.st41{fill:url(#SVGID_49_);}
	.st42{fill:url(#SVGID_50_);}
	.st43{fill:url(#SVGID_53_);}
	.st44{fill:url(#SVGID_54_);}
	.st45{fill:url(#SVGID_55_);}
	.st46{fill:#F4F4F4;}
	.st47{clip-path:url(#SVGID_57_);}
	.st48{clip-path:url(#SVGID_59_);}
	.st49{clip-path:url(#SVGID_61_);}
	.st50{clip-path:url(#SVGID_63_);}
	.st51{clip-path:url(#SVGID_65_);}
	.st52{clip-path:url(#SVGID_67_);}
	.st53{fill:url(#SVGID_68_);}
	.st54{clip-path:url(#SVGID_70_);}
	.st55{fill:url(#SVGID_71_);}
	.st56{clip-path:url(#SVGID_73_);}
	.st57{clip-path:url(#SVGID_75_);}
	.st58{clip-path:url(#SVGID_77_);}
	.st59{clip-path:url(#SVGID_79_);}
	.st60{clip-path:url(#SVGID_81_);}
	.st61{clip-path:url(#SVGID_83_);}
	.st62{fill:url(#SVGID_84_);}
	.st63{clip-path:url(#SVGID_86_);}
	.st64{clip-path:url(#SVGID_88_);}
	.st65{fill:url(#SVGID_89_);}
	.st66{fill:url(#SVGID_90_);}
	.st67{fill:#FFF9FD;}
	.st68{fill:#292C3D;}
	.st69{fill:#F9A57E;}
	.st70{fill:#FF4C6B;}
	.st71{fill:#AFEAF0;}
	.st72{fill:#4D505E;}
	.st73{fill:#3D3848;}
	.st74{fill:#E76F59;}
	.st75{fill:#DA395B;}
	.st76{fill:#7695A8;}
	.st77{fill:#5AC4E0;}
	.st78{fill:#0254E4;}
	.st79{opacity:0.65;fill:#00A1CC;}
	.st80{fill:#FFB089;}
	.st81{opacity:0.55;fill:#ABACB3;}
	.st82{fill:#3F6A85;}
	.st83{fill:#5B5D6A;}
	.st84{fill:#273137;}
	.st85{fill:#F8F2ED;}
	.st86{fill:#48525B;}
	.st87{fill:#B6B6B6;}
	.st88{fill:#8494AB;}
	.st89{fill:#B3B2DA;}
	.st90{fill:url(#SVGID_91_);}
	.st91{fill:url(#SVGID_92_);}
</style>
<path class="st6" d="M16.4,6.7C17,6.3,17.6,5.7,18,5v0c-0.6,0.3-1.2,0.4-1.9,0.5c0.7-0.4,1.2-1,1.4-1.8c-0.6,0.4-1.3,0.6-2.1,0.8
	c-0.6-0.6-1.5-1-2.4-1c-1.8,0-3.3,1.5-3.3,3.3c0,0.3,0,0.5,0.1,0.7C7.1,7.4,4.7,6.1,3.1,4.1C2.8,4.6,2.7,5.2,2.7,5.8
	c0,1.1,0.6,2.1,1.5,2.7c-0.5,0-1-0.2-1.5-0.4v0c0,1.6,1.1,2.9,2.6,3.2c-0.3,0.1-0.6,0.1-0.9,0.1c-0.2,0-0.4,0-0.6-0.1
	c0.4,1.3,1.6,2.3,3.1,2.3c-1.1,0.9-2.5,1.4-4.1,1.4c-0.3,0-0.5,0-0.8,0c1.5,0.9,3.2,1.5,5,1.5C12.8,16.5,16.6,11.7,16.4,6.7
	L16.4,6.7z"/>
</svg>
